<svg width="16" height="18" viewBox="0 0 16 18" fill="none" xmlns="http://www.w3.org/2000/svg">
<path d="M13.1532 17.1888C12.184 18.1284 11.1258 17.98 10.1071 17.535C9.02913 17.08 8.04014 17.0603 6.90281 17.535C5.47867 18.1481 4.72704 17.9701 3.87652 17.1888C-0.949725 12.2142 -0.237656 4.63862 5.24132 4.3617C6.57645 4.43093 7.50609 5.09355 8.28739 5.15289C9.45439 4.91553 10.5719 4.23314 11.8181 4.32214C13.3114 4.44082 14.4389 5.03421 15.1806 6.10232C12.095 7.95172 12.8268 12.0164 15.6553 13.1538C15.0916 14.6372 14.3598 16.1108 13.1433 17.1987L13.1532 17.1888ZM8.18849 4.30236C8.04014 2.09693 9.8302 0.277199 11.8873 0.0991821C12.1741 2.65076 9.57307 4.54961 8.18849 4.30236Z" fill="black"/>
</svg>
