<svg width="15" height="12" viewBox="0 0 15 12" fill="none" xmlns="http://www.w3.org/2000/svg">
<path fill-rule="evenodd" clip-rule="evenodd" d="M14.6705 5.5583C14.7876 5.67549 14.8533 5.83434 14.8533 5.99997C14.8533 6.16559 14.7876 6.32444 14.6705 6.44163L9.67055 11.4416C9.61333 11.503 9.54433 11.5523 9.46766 11.5864C9.391 11.6206 9.30824 11.639 9.22432 11.6405C9.1404 11.6419 9.05704 11.6265 8.97922 11.5951C8.90139 11.5636 8.8307 11.5168 8.77135 11.4575C8.712 11.3981 8.66521 11.3275 8.63378 11.2496C8.60235 11.1718 8.58691 11.0884 8.58839 11.0045C8.58987 10.9206 8.60824 10.8378 8.6424 10.7612C8.67656 10.6845 8.72581 10.6155 8.78722 10.5583L12.7205 6.62497L0.895549 6.62497C0.729788 6.62497 0.570816 6.55912 0.453607 6.44191C0.336396 6.3247 0.270549 6.16573 0.270549 5.99997C0.270549 5.8342 0.336396 5.67523 0.453607 5.55802C0.570816 5.44081 0.729788 5.37497 0.895549 5.37497L12.7205 5.37497L8.78722 1.44163C8.72581 1.38441 8.67656 1.31541 8.6424 1.23875C8.60824 1.16208 8.58987 1.07932 8.58839 0.995401C8.58691 0.911481 8.60235 0.828124 8.63378 0.7503C8.66521 0.672477 8.712 0.601782 8.77135 0.542433C8.8307 0.483084 8.90139 0.436297 8.97922 0.404863C9.05704 0.373429 9.1404 0.357992 9.22432 0.359472C9.30824 0.360953 9.391 0.379321 9.46766 0.413481C9.54433 0.447641 9.61333 0.496893 9.67055 0.558298L14.6705 5.5583Z" fill="black"/>
</svg>
