<svg width="31" height="19" viewBox="0 0 31 19" fill="none" xmlns="http://www.w3.org/2000/svg">
<path d="M9.54492 17.14V15.89C9.54492 14.2324 10.2034 12.6427 11.3755 11.4706C12.5476 10.2985 14.1373 9.64001 15.7949 9.64001M15.7949 9.64001C17.4525 9.64001 19.0422 10.2985 20.2143 11.4706C21.3864 12.6427 22.0449 14.2324 22.0449 15.89V17.14M15.7949 9.64001C16.7895 9.64001 17.7433 9.24493 18.4466 8.54167C19.1498 7.8384 19.5449 6.88458 19.5449 5.89001C19.5449 4.89545 19.1498 3.94163 18.4466 3.23836C17.7433 2.5351 16.7895 2.14001 15.7949 2.14001C14.8004 2.14001 13.8465 2.5351 13.1433 3.23836C12.44 3.94163 12.0449 4.89545 12.0449 5.89001C12.0449 6.88458 12.44 7.8384 13.1433 8.54167C13.8465 9.24493 14.8004 9.64001 15.7949 9.64001ZM2.04492 17.14V15.89C2.04492 14.8955 2.44001 13.9416 3.14327 13.2384C3.84653 12.5351 4.80036 12.14 5.79492 12.14M5.79492 12.14C6.45796 12.14 7.09385 11.8766 7.56269 11.4078C8.03153 10.9389 8.29492 10.3031 8.29492 9.64001C8.29492 8.97697 8.03153 8.34109 7.56269 7.87225C7.09385 7.40341 6.45796 7.14001 5.79492 7.14001C5.13188 7.14001 4.496 7.40341 4.02715 7.87225C3.55831 8.34109 3.29492 8.97697 3.29492 9.64001C3.29492 10.3031 3.55831 10.9389 4.02715 11.4078C4.496 11.8766 5.13188 12.14 5.79492 12.14ZM29.5449 17.14V15.89C29.5449 14.8955 29.1498 13.9416 28.4466 13.2384C27.7433 12.5351 26.7895 12.14 25.7949 12.14M25.7949 12.14C26.458 12.14 27.0938 11.8766 27.5627 11.4078C28.0315 10.9389 28.2949 10.3031 28.2949 9.64001C28.2949 8.97697 28.0315 8.34109 27.5627 7.87225C27.0938 7.40341 26.458 7.14001 25.7949 7.14001C25.1319 7.14001 24.496 7.40341 24.0272 7.87225C23.5583 8.34109 23.2949 8.97697 23.2949 9.64001C23.2949 10.3031 23.5583 10.9389 24.0272 11.4078C24.496 11.8766 25.1319 12.14 25.7949 12.14Z" stroke="black" stroke-width="3" stroke-linecap="round" stroke-linejoin="round"/>
</svg>
