<svg width="30" height="18" viewBox="0 0 30 18" fill="none" xmlns="http://www.w3.org/2000/svg">
<path d="M8.54492 16.1401V14.8901C8.54492 13.2325 9.2034 11.6428 10.3755 10.4707C11.5476 9.29862 13.1373 8.64014 14.7949 8.64014M14.7949 8.64014C16.4525 8.64014 18.0422 9.29862 19.2143 10.4707C20.3864 11.6428 21.0449 13.2325 21.0449 14.8901V16.1401M14.7949 8.64014C15.7895 8.64014 16.7433 8.24505 17.4466 7.54179C18.1498 6.83853 18.5449 5.8847 18.5449 4.89014C18.5449 3.89557 18.1498 2.94175 17.4466 2.23849C16.7433 1.53522 15.7895 1.14014 14.7949 1.14014C13.8004 1.14014 12.8465 1.53522 12.1433 2.23849C11.44 2.94175 11.0449 3.89557 11.0449 4.89014C11.0449 5.8847 11.44 6.83853 12.1433 7.54179C12.8465 8.24505 13.8004 8.64014 14.7949 8.64014ZM1.04492 16.1401V14.8901C1.04492 13.8956 1.44001 12.9417 2.14327 12.2385C2.84653 11.5352 3.80036 11.1401 4.79492 11.1401M4.79492 11.1401C5.45796 11.1401 6.09385 10.8767 6.56269 10.4079C7.03153 9.93906 7.29492 9.30318 7.29492 8.64014C7.29492 7.9771 7.03153 7.34121 6.56269 6.87237C6.09385 6.40353 5.45796 6.14014 4.79492 6.14014C4.13188 6.14014 3.496 6.40353 3.02715 6.87237C2.55831 7.34121 2.29492 7.9771 2.29492 8.64014C2.29492 9.30318 2.55831 9.93906 3.02715 10.4079C3.496 10.8767 4.13188 11.1401 4.79492 11.1401ZM28.5449 16.1401V14.8901C28.5449 13.8956 28.1498 12.9417 27.4466 12.2385C26.7433 11.5352 25.7895 11.1401 24.7949 11.1401M24.7949 11.1401C25.458 11.1401 26.0938 10.8767 26.5627 10.4079C27.0315 9.93906 27.2949 9.30318 27.2949 8.64014C27.2949 7.9771 27.0315 7.34121 26.5627 6.87237C26.0938 6.40353 25.458 6.14014 24.7949 6.14014C24.1319 6.14014 23.496 6.40353 23.0272 6.87237C22.5583 7.34121 22.2949 7.9771 22.2949 8.64014C22.2949 9.30318 22.5583 9.93906 23.0272 10.4079C23.496 10.8767 24.1319 11.1401 24.7949 11.1401Z" stroke="black" stroke-width="1.875" stroke-linecap="round" stroke-linejoin="round"/>
</svg>
