<svg width="16" height="16" viewBox="0 0 16 16" fill="none" xmlns="http://www.w3.org/2000/svg">
<path d="M5.48228 0.993354C3.98354 1.51328 2.69104 2.50011 1.79461 3.8089C0.89818 5.11769 0.445078 6.67946 0.501856 8.2648C0.558635 9.85014 1.1223 11.3755 2.11006 12.6168C3.09782 13.8581 4.45761 14.7499 5.9897 15.1613C7.23179 15.4818 8.53315 15.4959 9.78189 15.2023C10.9131 14.9482 11.959 14.4047 12.817 13.625C13.7101 12.7887 14.3583 11.7248 14.692 10.5477C15.0546 9.26756 15.1192 7.92141 14.8807 6.61249H7.90571V9.50585H11.9452C11.8644 9.96732 11.6914 10.4078 11.4365 10.8008C11.1816 11.1939 10.85 11.5314 10.4616 11.7934C9.96837 12.1198 9.41231 12.3393 8.82915 12.4379C8.24432 12.5467 7.64445 12.5467 7.05962 12.4379C6.46683 12.3155 5.90607 12.0708 5.41313 11.7195C4.62112 11.1589 4.02643 10.3624 3.71392 9.44374C3.39621 8.50786 3.39621 7.4933 3.71392 6.55742C3.93637 5.90142 4.30411 5.30414 4.7897 4.81015C5.34539 4.23446 6.04891 3.82296 6.82308 3.62079C7.59725 3.41861 8.41215 3.43359 9.17837 3.66406C9.77696 3.84772 10.3243 4.16876 10.7768 4.60156C11.2323 4.14843 11.687 3.69414 12.1409 3.23867C12.3752 2.99375 12.6307 2.76054 12.8616 2.50976C12.1708 1.86701 11.36 1.36684 10.4756 1.03789C8.86513 0.453108 7.10295 0.437393 5.48228 0.993354Z" fill="white"/>
<path d="M5.48228 0.993354C7.10282 0.437015 8.865 0.452317 10.4756 1.03671C11.3602 1.3679 12.1706 1.87048 12.8604 2.51562C12.626 2.7664 12.3788 3.00078 12.1397 3.24453C11.685 3.69843 11.2307 4.15078 10.7768 4.60156C10.3243 4.16876 9.77696 3.84772 9.17837 3.66406C8.4124 3.43278 7.59753 3.41694 6.82316 3.61829C6.04878 3.81963 5.34483 4.23038 4.78853 4.80546C4.30294 5.29945 3.9352 5.89673 3.71274 6.55273L1.28345 4.67187C2.15299 2.94753 3.65854 1.62854 5.48228 0.993354Z" fill="#E33629"/>
<path d="M0.638916 6.53515C0.769392 5.88801 0.986173 5.26131 1.28345 4.67187L3.71274 6.55742C3.39504 7.4933 3.39504 8.50786 3.71274 9.44374C2.90337 10.0687 2.0936 10.6969 1.28345 11.3281C0.539483 9.84724 0.312587 8.15996 0.638916 6.53515Z" fill="#F8BD00"/>
<path d="M7.90571 6.61132H14.8807C15.1192 7.92024 15.0546 9.26638 14.692 10.5465C14.3583 11.7236 13.7101 12.7875 12.817 13.6238C12.0331 13.0121 11.2456 12.4051 10.4616 11.7934C10.8503 11.5312 11.182 11.1932 11.4369 10.7998C11.6919 10.4063 11.8647 9.9654 11.9452 9.50351H7.90571C7.90454 8.54023 7.90571 7.57578 7.90571 6.61132Z" fill="#587DBD"/>
<path d="M1.28228 11.3281C2.09243 10.7031 2.9022 10.075 3.71157 9.44375C4.02471 10.3627 4.62025 11.1592 5.41313 11.7195C5.90761 12.0692 6.46957 12.3118 7.06313 12.432C7.64796 12.5408 8.24784 12.5408 8.83267 12.432C9.41582 12.3335 9.97189 12.1139 10.4651 11.7875C11.2491 12.3992 12.0366 13.0062 12.8206 13.618C11.9626 14.3981 10.9167 14.942 9.7854 15.1965C8.53666 15.49 7.23531 15.476 5.99321 15.1555C5.01083 14.8932 4.09322 14.4308 3.2979 13.7973C2.45617 13.1288 1.76864 12.2866 1.28228 11.3281Z" fill="#319F43"/>
</svg>
