<svg width="24" height="27" viewBox="0 0 24 27" fill="none" xmlns="http://www.w3.org/2000/svg">
<path d="M4.46117 24.8902C2.98867 24.8902 1.79492 23.6652 1.79492 22.1527V11.1502C1.79492 10.319 2.16367 9.53149 2.79492 9.01274L10.1287 2.99024C10.5972 2.60222 11.1865 2.38989 11.7949 2.38989C12.4033 2.38989 12.9926 2.60222 13.4612 2.99024L20.7937 9.01274C21.4262 9.53149 21.7949 10.319 21.7949 11.1502V22.1527C21.7949 23.6652 20.6012 24.8902 19.1287 24.8902H4.46117Z" stroke="black" stroke-width="3" stroke-linecap="round" stroke-linejoin="round"/>
<path d="M8.66992 24.8901V18.0151C8.66992 17.3521 8.93331 16.7162 9.40216 16.2474C9.871 15.7785 10.5069 15.5151 11.1699 15.5151H12.4199C13.083 15.5151 13.7188 15.7785 14.1877 16.2474C14.6565 16.7162 14.9199 17.3521 14.9199 18.0151V24.8901" stroke="black" stroke-width="3" stroke-linecap="round" stroke-linejoin="round"/>
</svg>
