<svg width="23" height="25" viewBox="0 0 23 25" fill="none" xmlns="http://www.w3.org/2000/svg">
<path d="M4.46117 23.8902C2.98867 23.8902 1.79492 22.6652 1.79492 21.1527V10.1502C1.79492 9.31899 2.16367 8.53149 2.79492 8.01274L10.1287 1.99024C10.5972 1.60222 11.1865 1.38989 11.7949 1.38989C12.4033 1.38989 12.9926 1.60222 13.4612 1.99024L20.7937 8.01274C21.4262 8.53149 21.7949 9.31899 21.7949 10.1502V21.1527C21.7949 22.6652 20.6012 23.8902 19.1287 23.8902H4.46117Z" stroke="black" stroke-width="2" stroke-linecap="round" stroke-linejoin="round"/>
<path d="M8.66992 23.8901V17.0151C8.66992 16.3521 8.93331 15.7162 9.40216 15.2474C9.871 14.7785 10.5069 14.5151 11.1699 14.5151H12.4199C13.083 14.5151 13.7188 14.7785 14.1877 15.2474C14.6565 15.7162 14.9199 16.3521 14.9199 17.0151V23.8901" stroke="black" stroke-width="2" stroke-linecap="round" stroke-linejoin="round"/>
</svg>
