<svg width="25" height="25" viewBox="0 0 25 25" fill="none" xmlns="http://www.w3.org/2000/svg">
<path d="M0.794922 2.88714C0.794922 1.64514 1.80142 0.640137 3.04492 0.640137H4.54492C5.78542 0.640137 6.79342 1.64514 6.79342 2.88714V22.3601C6.79342 23.6006 5.78542 24.6056 4.54342 24.6056H3.04342C1.80142 24.6056 0.794922 23.6006 0.794922 22.3601V2.88714ZM3.04492 2.13714C2.84601 2.13714 2.65524 2.21615 2.51459 2.35681C2.37394 2.49746 2.29492 2.68822 2.29492 2.88714V22.3601C2.29532 22.5588 2.37451 22.7492 2.51512 22.8895C2.65573 23.0298 2.84627 23.1086 3.04492 23.1086H4.54492C4.74357 23.1082 4.93395 23.029 5.07428 22.8884C5.21461 22.7478 5.29342 22.5573 5.29342 22.3586V2.88864C5.29342 2.68972 5.2144 2.49896 5.07375 2.35831C4.9331 2.21765 4.74233 2.13864 4.54342 2.13864L3.04492 2.13714ZM8.29192 2.88714C8.29192 1.64514 9.29992 0.640137 10.5419 0.640137H12.0419C13.2839 0.640137 14.2904 1.64514 14.2904 2.88714V22.3601C14.2904 23.6006 13.2839 24.6056 12.0404 24.6056H10.5404C9.29992 24.6056 8.29192 23.6006 8.29192 22.3601V2.88714ZM10.5419 2.13714C10.343 2.13714 10.1522 2.21615 10.0116 2.35681C9.87094 2.49746 9.79192 2.68822 9.79192 2.88714V22.3601C9.79232 22.5588 9.87151 22.7492 10.0121 22.8895C10.1527 23.0298 10.3433 23.1086 10.5419 23.1086H12.0419C12.2408 23.1086 12.4316 23.0296 12.5723 22.889C12.7129 22.7483 12.7919 22.5575 12.7919 22.3586V2.88864C12.7919 2.68972 12.7129 2.49896 12.5723 2.35831C12.4316 2.21765 12.2408 2.13864 12.0419 2.13864L10.5419 2.13714ZM21.3719 6.87564C21.3034 6.5787 21.1753 6.29878 20.9953 6.05286C20.8153 5.80693 20.5873 5.60013 20.325 5.445C20.0627 5.28986 19.7716 5.18963 19.4694 5.15037C19.1672 5.11112 18.8601 5.13366 18.5669 5.21664L17.4494 5.53164C16.9038 5.68598 16.4367 6.04092 16.1418 6.52527C15.8469 7.00961 15.746 7.58754 15.8594 8.14314L18.8639 22.8431C18.9253 23.1411 19.0465 23.4234 19.2201 23.6732C19.3936 23.923 19.6161 24.135 19.8739 24.2963C20.1318 24.4577 20.4196 24.5651 20.7202 24.6121C21.0207 24.6591 21.3276 24.6446 21.6224 24.5696L23.0999 24.1946C24.2849 23.8946 25.0109 22.7036 24.7379 21.5141L21.3719 6.87564ZM18.9749 6.65814C19.0727 6.63031 19.175 6.62264 19.2758 6.63558C19.3766 6.64853 19.4737 6.68182 19.5613 6.73345C19.6488 6.78507 19.7249 6.85394 19.785 6.93589C19.8452 7.01783 19.888 7.11114 19.9109 7.21014L23.2754 21.8501C23.3186 22.0407 23.2857 22.2406 23.1838 22.4073C23.0818 22.574 22.9188 22.6943 22.7294 22.7426L21.2519 23.1176C21.1537 23.1426 21.0515 23.1475 20.9514 23.1319C20.8512 23.1163 20.7553 23.0806 20.6694 23.0269C20.5835 22.9732 20.5093 22.9027 20.4514 22.8195C20.3935 22.7364 20.353 22.6424 20.3324 22.5431L17.3279 7.84314C17.2905 7.6581 17.3242 7.46575 17.4224 7.30448C17.5205 7.14321 17.6759 7.02489 17.8574 6.97314L18.9749 6.65814Z" fill="black"/>
</svg>
