<svg width="16" height="21" viewBox="0 0 16 21" fill="none" xmlns="http://www.w3.org/2000/svg">
<path d="M4 9.30481V5.30481C4 4.24394 4.42143 3.22653 5.17157 2.47638C5.92172 1.72624 6.93913 1.30481 8 1.30481C9.06087 1.30481 10.0783 1.72624 10.8284 2.47638C11.5786 3.22653 12 4.24394 12 5.30481V9.30481M1 11.3048C1 10.7744 1.21071 10.2657 1.58579 9.8906C1.96086 9.51552 2.46957 9.30481 3 9.30481H13C13.5304 9.30481 14.0391 9.51552 14.4142 9.8906C14.7893 10.2657 15 10.7744 15 11.3048V17.3048C15 17.8352 14.7893 18.344 14.4142 18.719C14.0391 19.0941 13.5304 19.3048 13 19.3048H3C2.46957 19.3048 1.96086 19.0941 1.58579 18.719C1.21071 18.344 1 17.8352 1 17.3048V11.3048ZM7 14.3048C7 14.57 7.10536 14.8244 7.29289 15.0119C7.48043 15.1995 7.73478 15.3048 8 15.3048C8.26522 15.3048 8.51957 15.1995 8.70711 15.0119C8.89464 14.8244 9 14.57 9 14.3048C9 14.0396 8.89464 13.7852 8.70711 13.5977C8.51957 13.4102 8.26522 13.3048 8 13.3048C7.73478 13.3048 7.48043 13.4102 7.29289 13.5977C7.10536 13.7852 7 14.0396 7 14.3048Z" stroke="black" stroke-width="2" stroke-linecap="round" stroke-linejoin="round"/>
</svg>
