<svg width="15" height="16" viewBox="0 0 15 16" fill="none" xmlns="http://www.w3.org/2000/svg">
<path d="M7.49127 0.570312C11.6335 0.570312 14.9913 3.92806 14.9913 8.07031C14.9913 12.2126 11.6335 15.5703 7.49127 15.5703C3.34902 15.5703 -0.00872803 12.2126 -0.00872803 8.07031C-0.00872803 3.92806 3.34902 0.570312 7.49127 0.570312ZM7.49127 2.07031C5.89997 2.07031 4.37385 2.70245 3.24863 3.82767C2.12341 4.95289 1.49127 6.47901 1.49127 8.07031C1.49127 9.66161 2.12341 11.1877 3.24863 12.313C4.37385 13.4382 5.89997 14.0703 7.49127 14.0703C9.08257 14.0703 10.6087 13.4382 11.7339 12.313C12.8591 11.1877 13.4913 9.66161 13.4913 8.07031C13.4913 6.47901 12.8591 4.95289 11.7339 3.82767C10.6087 2.70245 9.08257 2.07031 7.49127 2.07031ZM4.11627 6.94531C4.41464 6.94531 4.70079 7.06384 4.91177 7.27482C5.12275 7.4858 5.24127 7.77194 5.24127 8.07031C5.24127 8.36868 5.12275 8.65483 4.91177 8.86581C4.70079 9.07679 4.41464 9.19531 4.11627 9.19531C3.8179 9.19531 3.53176 9.07679 3.32078 8.86581C3.1098 8.65483 2.99127 8.36868 2.99127 8.07031C2.99127 7.77194 3.1098 7.4858 3.32078 7.27482C3.53176 7.06384 3.8179 6.94531 4.11627 6.94531ZM7.49127 6.94531C7.78964 6.94531 8.07579 7.06384 8.28677 7.27482C8.49775 7.4858 8.61627 7.77194 8.61627 8.07031C8.61627 8.36868 8.49775 8.65483 8.28677 8.86581C8.07579 9.07679 7.78964 9.19531 7.49127 9.19531C7.1929 9.19531 6.90675 9.07679 6.69578 8.86581C6.4848 8.65483 6.36627 8.36868 6.36627 8.07031C6.36627 7.77194 6.4848 7.4858 6.69578 7.27482C6.90675 7.06384 7.1929 6.94531 7.49127 6.94531ZM10.8663 6.94531C11.1646 6.94531 11.4508 7.06384 11.6618 7.27482C11.8727 7.4858 11.9913 7.77194 11.9913 8.07031C11.9913 8.36868 11.8727 8.65483 11.6618 8.86581C11.4508 9.07679 11.1646 9.19531 10.8663 9.19531C10.5679 9.19531 10.2818 9.07679 10.0708 8.86581C9.8598 8.65483 9.74127 8.36868 9.74127 8.07031C9.74127 7.77194 9.8598 7.4858 10.0708 7.27482C10.2818 7.06384 10.5679 6.94531 10.8663 6.94531Z" fill="#656565"/>
</svg>
