<svg width="24" height="24" viewBox="0 0 24 24" fill="none" xmlns="http://www.w3.org/2000/svg">
<path d="M1.79492 19.14C1.79492 17.8139 2.32171 16.5422 3.25939 15.6045C4.19707 14.6668 5.46884 14.14 6.79492 14.14H16.7949C18.121 14.14 19.3928 14.6668 20.3305 15.6045C21.2681 16.5422 21.7949 17.8139 21.7949 19.14C21.7949 19.8031 21.5315 20.4389 21.0627 20.9078C20.5938 21.3766 19.958 21.64 19.2949 21.64H4.29492C3.63188 21.64 2.996 21.3766 2.52715 20.9078C2.05831 20.4389 1.79492 19.8031 1.79492 19.14Z" stroke="black" stroke-width="3" stroke-linejoin="round"/>
<path d="M11.7949 9.14001C13.866 9.14001 15.5449 7.46108 15.5449 5.39001C15.5449 3.31895 13.866 1.64001 11.7949 1.64001C9.72385 1.64001 8.04492 3.31895 8.04492 5.39001C8.04492 7.46108 9.72385 9.14001 11.7949 9.14001Z" stroke="black" stroke-width="3"/>
</svg>
