<svg width="23" height="23" viewBox="0 0 23 23" fill="none" xmlns="http://www.w3.org/2000/svg">
<path d="M1.79492 19.1401C1.79492 17.8141 2.32171 16.5423 3.25939 15.6046C4.19707 14.6669 5.46884 14.1401 6.79492 14.1401H16.7949C18.121 14.1401 19.3928 14.6669 20.3305 15.6046C21.2681 16.5423 21.7949 17.8141 21.7949 19.1401C21.7949 19.8032 21.5315 20.4391 21.0627 20.9079C20.5938 21.3767 19.958 21.6401 19.2949 21.6401H4.29492C3.63188 21.6401 2.996 21.3767 2.52715 20.9079C2.05831 20.4391 1.79492 19.8032 1.79492 19.1401Z" stroke="black" stroke-width="1.875" stroke-linejoin="round"/>
<path d="M11.7949 9.14014C13.866 9.14014 15.5449 7.4612 15.5449 5.39014C15.5449 3.31907 13.866 1.64014 11.7949 1.64014C9.72385 1.64014 8.04492 3.31907 8.04492 5.39014C8.04492 7.4612 9.72385 9.14014 11.7949 9.14014Z" stroke="black" stroke-width="1.875"/>
</svg>
