<svg width="33" height="33" viewBox="0 0 33 33" fill="none" xmlns="http://www.w3.org/2000/svg">
<path d="M7.64289 2.10712H4.32146C3.7342 2.10712 3.17099 2.34041 2.75573 2.75567C2.34047 3.17093 2.10718 3.73414 2.10718 4.3214V7.64283M25.3572 2.10712H28.6786C29.2659 2.10712 29.8291 2.34041 30.2443 2.75567C30.6596 3.17093 30.8929 3.73414 30.8929 4.3214V7.64283M7.64289 30.8928H4.32146C3.7342 30.8928 3.17099 30.6595 2.75573 30.2443C2.34047 29.829 2.10718 29.2658 2.10718 28.6785V25.3571M25.3572 30.8928H28.6786C29.2659 30.8928 29.8291 30.6595 30.2443 30.2443C30.6596 29.829 30.8929 29.2658 30.8929 28.6785V25.3571M7.64289 22.0357V25.3571H10.9643M16.5 25.3571V22.0357H13.1786M25.3572 10.9643H22.0358V7.64283M25.3572 18.7143V15.3928H22.0358M22.0358 22.0357V25.3571H25.3572M14.2857 7.64283H9.85718C9.26991 7.64283 8.7067 7.87612 8.29144 8.29138C7.87618 8.70664 7.64289 9.26985 7.64289 9.85712V14.2857C7.64289 14.873 7.87618 15.4362 8.29144 15.8514C8.7067 16.2667 9.26991 16.5 9.85718 16.5H14.2857C14.873 16.5 15.4362 16.2667 15.8515 15.8514C16.2667 15.4362 16.5 14.873 16.5 14.2857V9.85712C16.5 9.26985 16.2667 8.70664 15.8515 8.29138C15.4362 7.87612 14.873 7.64283 14.2857 7.64283Z" stroke="black" stroke-width="2.5753" stroke-linecap="round" stroke-linejoin="round"/>
</svg>
