<svg width="24" height="25" viewBox="0 0 24 25" fill="none" xmlns="http://www.w3.org/2000/svg">
<path d="M21.322 24.0654L21.5255 23.6087L21.322 24.0654C21.4983 24.144 21.6887 24.1862 21.8817 24.1896C22.0747 24.193 22.2664 24.1575 22.4454 24.0852C22.6244 24.0129 22.787 23.9053 22.9235 23.7688C23.06 23.6323 23.1676 23.4697 23.2399 23.2907C23.3122 23.1117 23.3477 22.92 23.3443 22.727C23.3409 22.534 23.2987 22.3436 23.2201 22.1673L22.7634 22.3708L23.2201 22.1673C23.1429 21.9939 23.0321 21.8376 22.8942 21.7074L16.763 15.5774C18.0045 13.8528 18.594 11.7373 18.4161 9.61002C18.2257 7.3333 17.1707 5.2159 15.4679 3.69272C13.7651 2.16953 11.5437 1.35618 9.25987 1.41972C6.97608 1.48326 4.80331 2.41886 3.1878 4.03436C1.5723 5.64987 0.6367 7.82264 0.573163 10.1064C0.509626 12.3902 1.32297 14.6116 2.84616 16.3145C4.36935 18.0173 6.48674 19.0723 8.76346 19.2627C10.8908 19.4406 13.0063 18.8511 14.7309 17.6095L20.8621 23.7395C20.9924 23.8774 21.1487 23.9882 21.322 24.0654ZM15.458 11.5306C15.2268 12.7003 14.6559 13.7757 13.8168 14.6224L13.8112 14.6269L13.7918 14.6463C12.6544 15.7809 11.1132 16.4178 9.50665 16.4169C7.9001 16.4161 6.35959 15.7776 5.22348 14.6417C4.37594 13.794 3.79869 12.7142 3.56468 11.5386C3.33068 10.363 3.45043 9.14437 3.9088 8.03679C4.36717 6.92922 5.14358 5.98238 6.13992 5.31594C7.13625 4.64951 8.30779 4.29338 9.50646 4.29257C10.7051 4.29177 11.8771 4.64632 12.8744 5.31141C13.8716 5.97651 14.6493 6.9223 15.1092 8.02925C15.569 9.13621 15.6904 10.3546 15.458 11.5306Z" fill="black" stroke="black"/>
</svg>
