<svg width="22" height="23" viewBox="0 0 22 23" fill="none" xmlns="http://www.w3.org/2000/svg">
<path fill-rule="evenodd" clip-rule="evenodd" d="M13.7762 15.9477C12.0911 17.2941 9.9545 17.9442 7.80513 17.7644C5.65576 17.5846 3.65681 16.5887 2.21882 14.9811C0.78084 13.3735 0.0129864 11.2764 0.0729693 9.12033C0.132952 6.96429 1.01622 4.91306 2.54136 3.38792C4.0665 1.86278 6.11773 0.97951 8.27377 0.919527C10.4298 0.859544 12.527 1.6274 14.1346 3.06538C15.7421 4.50337 16.7381 6.50232 16.9178 8.65169C17.0976 10.8011 16.4475 12.9377 15.1012 14.6227L21.5462 21.0665C21.6383 21.1523 21.7121 21.2558 21.7634 21.3708C21.8146 21.4858 21.8422 21.6099 21.8444 21.7358C21.8466 21.8617 21.8235 21.9867 21.7763 22.1035C21.7292 22.2202 21.659 22.3262 21.57 22.4153C21.4809 22.5043 21.3749 22.5745 21.2582 22.6216C21.1414 22.6688 21.0164 22.6919 20.8905 22.6897C20.7646 22.6875 20.6405 22.6599 20.5255 22.6087C20.4105 22.5575 20.307 22.4836 20.2212 22.3915L13.7762 15.9477ZM3.86991 13.9952C2.95246 13.0777 2.3276 11.9088 2.0743 10.6362C1.821 9.36361 1.95063 8.04451 2.4468 6.84559C2.94298 5.64667 3.78342 4.62175 4.86193 3.90035C5.94043 3.17894 7.20859 2.79345 8.50613 2.79257C9.80366 2.7917 11.0723 3.17549 12.1518 3.89544C13.2313 4.61539 14.0731 5.63918 14.5709 6.83744C15.0687 8.03569 15.2001 9.35461 14.9485 10.6275C14.6969 11.9004 14.0736 13.0702 13.1574 13.989L13.1512 13.9952L13.1449 14.0002C11.9138 15.2285 10.2454 15.9179 8.50638 15.9169C6.76731 15.916 5.09972 15.2248 3.86991 13.9952Z" fill="black"/>
</svg>
