<svg width="17" height="16" viewBox="0 0 17 16" fill="none" xmlns="http://www.w3.org/2000/svg">
<path d="M7.15624 1.29736C7.75649 0.270161 9.24095 0.270162 9.8412 1.29736L11.2444 3.6986C11.4639 4.07417 11.8306 4.34064 12.2556 4.43331L14.9729 5.02579C16.1354 5.27924 16.5941 6.69104 15.8026 7.57934L13.9525 9.65587C13.6632 9.98065 13.5231 10.4118 13.5663 10.8446L13.8425 13.6121C13.9607 14.7959 12.7597 15.6684 11.6703 15.1902L9.1237 14.0724C8.72539 13.8975 8.27205 13.8975 7.87374 14.0724L5.32713 15.1902C4.23775 15.6684 3.03679 14.7959 3.15495 13.6121L3.43117 10.8446C3.47437 10.4118 3.33428 9.98065 3.04491 9.65587L1.1948 7.57934C0.403365 6.69104 0.862089 5.27924 2.0245 5.02579L4.74182 4.43331C5.16683 4.34064 5.53359 4.07417 5.75306 3.6986L7.15624 1.29736Z" fill="#F8BD00"/>
</svg>
